<svg xmlns="http://www.w3.org/2000/svg" xmlns:xlink="http://www.w3.org/1999/xlink" width="200" zoomAndPan="magnify" viewBox="0 0 150 74.999997" height="100" preserveAspectRatio="xMidYMid meet" version="1.0"><defs><g/></defs><g fill="#5e17eb" fill-opacity="1"><g transform="translate(18.573948, 38.007767)"><g><path d="M 17.246094 -17.117188 L 14.753906 -17.117188 C 13.894531 -17.117188 13.765625 -16.546875 13.585938 -16.234375 L 10 -9.84375 L 6.441406 -16.234375 C 6.234375 -16.546875 6.128906 -17.117188 5.246094 -17.117188 L 2.675781 -17.117188 C 2.078125 -17.117188 1.921875 -16.832031 1.921875 -16.363281 L 1.921875 -0.753906 C 1.921875 -0.15625 2.207031 0 2.675781 0 L 5.246094 0 C 5.714844 0 6 -0.15625 6 -0.753906 L 6 -9.558594 L 8.625 -5.011719 C 8.753906 -4.804688 8.960938 -4.46875 9.351562 -4.46875 L 10.648438 -4.46875 C 11.039062 -4.46875 11.273438 -4.804688 11.402344 -5.011719 L 14 -9.558594 L 14 -0.753906 C 14 -0.15625 14.285156 0 14.753906 0 L 17.246094 0 C 17.714844 0 18 -0.15625 18 -0.753906 L 18 -16.363281 C 18 -16.832031 17.84375 -17.117188 17.246094 -17.117188 Z M 17.246094 -17.117188 "/></g></g></g><g fill="#5e17eb" fill-opacity="1"><g transform="translate(38.494053, 38.007767)"><g><path d="M 15.351562 -5.480469 L 15.351562 -11.609375 C 15.351562 -15.714844 11.453125 -17.480469 8.363281 -17.480469 C 5.273438 -17.480469 1.429688 -15.714844 1.429688 -11.609375 L 1.429688 -5.480469 C 1.429688 -1.375 5.273438 0.390625 8.363281 0.390625 C 11.453125 0.390625 15.351562 -1.375 15.351562 -5.480469 Z M 11.273438 -11.246094 L 11.273438 -5.84375 C 11.273438 -4.183594 10.078125 -3.222656 8.363281 -3.222656 C 6.675781 -3.222656 5.480469 -4.183594 5.480469 -5.84375 L 5.480469 -11.246094 C 5.480469 -12.910156 6.675781 -13.871094 8.363281 -13.871094 C 10.078125 -13.871094 11.273438 -12.910156 11.273438 -11.246094 Z M 11.273438 -11.246094 "/></g></g></g><g fill="#5e17eb" fill-opacity="1"><g transform="translate(55.24564, 38.007767)"><g><path d="M 17.246094 -17.117188 L 14.753906 -17.117188 C 13.894531 -17.117188 13.765625 -16.546875 13.585938 -16.234375 L 10 -9.84375 L 6.441406 -16.234375 C 6.234375 -16.546875 6.128906 -17.117188 5.246094 -17.117188 L 2.675781 -17.117188 C 2.078125 -17.117188 1.921875 -16.832031 1.921875 -16.363281 L 1.921875 -0.753906 C 1.921875 -0.15625 2.207031 0 2.675781 0 L 5.246094 0 C 5.714844 0 6 -0.15625 6 -0.753906 L 6 -9.558594 L 8.625 -5.011719 C 8.753906 -4.804688 8.960938 -4.46875 9.351562 -4.46875 L 10.648438 -4.46875 C 11.039062 -4.46875 11.273438 -4.804688 11.402344 -5.011719 L 14 -9.558594 L 14 -0.753906 C 14 -0.15625 14.285156 0 14.753906 0 L 17.246094 0 C 17.714844 0 18 -0.15625 18 -0.753906 L 18 -16.363281 C 18 -16.832031 17.84375 -17.117188 17.246094 -17.117188 Z M 17.246094 -17.117188 "/></g></g></g><g fill="#5e17eb" fill-opacity="1"><g transform="translate(75.165745, 38.007767)"><g><path d="M 14.3125 -3.636719 L 6.027344 -3.636719 L 6.027344 -7.066406 L 12.988281 -7.066406 C 13.585938 -7.066406 13.738281 -7.351562 13.738281 -7.816406 L 13.738281 -9.84375 C 13.738281 -10.3125 13.585938 -10.597656 12.988281 -10.597656 L 6.027344 -10.597656 L 6.027344 -13.429688 L 13.871094 -13.429688 C 14.46875 -13.429688 14.625 -13.714844 14.625 -14.179688 L 14.625 -16.335938 C 14.625 -16.804688 14.46875 -17.089844 13.871094 -17.089844 L 2.675781 -17.089844 C 2.078125 -17.089844 1.921875 -16.804688 1.921875 -16.335938 L 1.921875 -0.753906 C 1.921875 -0.285156 2.078125 0 2.675781 0 L 14.3125 0 C 14.910156 0 15.066406 -0.285156 15.066406 -0.753906 L 15.066406 -2.882812 C 15.066406 -3.351562 14.910156 -3.636719 14.3125 -3.636719 Z M 14.3125 -3.636719 "/></g></g></g><g fill="#5e17eb" fill-opacity="1"><g transform="translate(91.449845, 38.007767)"><g><path d="M 15.039062 -17.089844 L 12.546875 -17.089844 C 12.078125 -17.089844 11.792969 -16.933594 11.792969 -16.335938 L 11.792969 -7.324219 L 6.285156 -16.207031 C 5.949219 -16.726562 5.765625 -17.089844 5.117188 -17.089844 L 2.675781 -17.089844 C 2.078125 -17.089844 1.921875 -16.804688 1.921875 -16.335938 L 1.921875 -0.753906 C 1.921875 -0.15625 2.207031 0 2.675781 0 L 5.246094 0 C 5.714844 0 6 -0.15625 6 -0.753906 L 6 -9.792969 L 11.507812 -0.882812 C 11.84375 -0.363281 12.027344 0 12.675781 0 L 15.039062 0 C 15.636719 0 15.792969 -0.285156 15.792969 -0.753906 L 15.792969 -16.335938 C 15.792969 -16.933594 15.507812 -17.089844 15.039062 -17.089844 Z M 15.039062 -17.089844 "/></g></g></g><g fill="#5e17eb" fill-opacity="1"><g transform="translate(109.162382, 38.007767)"><g><path d="M 13.480469 -17.089844 L 1.429688 -17.089844 C 0.832031 -17.089844 0.675781 -16.804688 0.675781 -16.335938 L 0.675781 -14.179688 C 0.675781 -13.714844 0.832031 -13.429688 1.429688 -13.429688 L 5.429688 -13.429688 L 5.429688 -0.753906 C 5.429688 -0.15625 5.714844 0 6.183594 0 L 8.753906 0 C 9.21875 0 9.507812 -0.15625 9.507812 -0.753906 L 9.507812 -13.429688 L 13.480469 -13.429688 C 14.078125 -13.429688 14.234375 -13.714844 14.234375 -14.179688 L 14.234375 -16.335938 C 14.234375 -16.804688 14.078125 -17.089844 13.480469 -17.089844 Z M 13.480469 -17.089844 "/></g></g></g><g fill="#5e17eb" fill-opacity="1"><g transform="translate(124.070001, 38.007767)"><g><path d="M 9.972656 -9.921875 C 8.933594 -10.335938 5.117188 -10.910156 5.117188 -12.492188 C 5.117188 -13.664062 6.546875 -14 7.402344 -14 C 8.183594 -14 9.117188 -13.765625 9.609375 -13.296875 C 9.921875 -12.988281 10.050781 -12.777344 10.15625 -12.519531 C 10.285156 -12.179688 10.363281 -11.816406 10.855469 -11.816406 L 13.402344 -11.816406 C 14 -11.816406 14.15625 -11.921875 14.15625 -12.546875 C 14.15625 -15.972656 10.546875 -17.480469 7.246094 -17.480469 C 4 -17.351562 0.933594 -15.6875 0.933594 -12.3125 C 0.933594 -9.011719 3.351562 -7.972656 5.972656 -7.144531 C 8.183594 -6.441406 10.492188 -6.414062 10.492188 -4.960938 C 10.492188 -3.507812 9.351562 -3.195312 7.949219 -3.195312 C 6.988281 -3.195312 5.921875 -3.429688 5.402344 -4.050781 C 5.066406 -4.441406 4.933594 -4.777344 4.910156 -5.117188 C 4.855469 -5.765625 4.570312 -5.84375 3.972656 -5.84375 L 1.453125 -5.84375 C 0.855469 -5.84375 0.703125 -5.714844 0.703125 -5.117188 C 0.703125 -1.480469 4.441406 0.390625 7.6875 0.390625 C 11.6875 0.390625 14.597656 -1.375 14.597656 -5.066406 C 14.597656 -8.597656 11.84375 -9.351562 9.972656 -9.921875 Z M 9.972656 -9.921875 "/></g></g></g><g fill="#8c52ff" fill-opacity="1"><g transform="translate(3.17385, 53.95613)"><g><path d="M 1.59375 -2.609375 L 1.59375 0 L 0.859375 0 L 0.859375 -6.265625 L 2.578125 -6.265625 C 3.347656 -6.265625 3.914062 -6.117188 4.28125 -5.828125 C 4.65625 -5.535156 4.84375 -5.09375 4.84375 -4.5 C 4.84375 -3.664062 4.421875 -3.101562 3.578125 -2.8125 L 5.28125 0 L 4.421875 0 L 2.90625 -2.609375 Z M 1.59375 -3.234375 L 2.59375 -3.234375 C 3.101562 -3.234375 3.476562 -3.332031 3.71875 -3.53125 C 3.957031 -3.738281 4.078125 -4.046875 4.078125 -4.453125 C 4.078125 -4.867188 3.953125 -5.164062 3.703125 -5.34375 C 3.460938 -5.53125 3.070312 -5.625 2.53125 -5.625 L 1.59375 -5.625 Z M 1.59375 -3.234375 "/></g></g></g><g fill="#8c52ff" fill-opacity="1"><g transform="translate(8.596484, 53.95613)"><g><path d="M 2.734375 0.078125 C 2.046875 0.078125 1.5 -0.128906 1.09375 -0.546875 C 0.695312 -0.972656 0.5 -1.5625 0.5 -2.3125 C 0.5 -3.070312 0.679688 -3.671875 1.046875 -4.109375 C 1.421875 -4.554688 1.925781 -4.78125 2.5625 -4.78125 C 3.144531 -4.78125 3.609375 -4.585938 3.953125 -4.203125 C 4.296875 -3.816406 4.46875 -3.304688 4.46875 -2.671875 L 4.46875 -2.21875 L 1.234375 -2.21875 C 1.242188 -1.664062 1.378906 -1.242188 1.640625 -0.953125 C 1.910156 -0.671875 2.285156 -0.53125 2.765625 -0.53125 C 3.273438 -0.53125 3.773438 -0.640625 4.265625 -0.859375 L 4.265625 -0.21875 C 4.015625 -0.113281 3.773438 -0.0390625 3.546875 0 C 3.328125 0.0507812 3.054688 0.078125 2.734375 0.078125 Z M 2.546875 -4.1875 C 2.171875 -4.1875 1.867188 -4.0625 1.640625 -3.8125 C 1.421875 -3.570312 1.289062 -3.234375 1.25 -2.796875 L 3.703125 -2.796875 C 3.703125 -3.242188 3.601562 -3.585938 3.40625 -3.828125 C 3.207031 -4.066406 2.921875 -4.1875 2.546875 -4.1875 Z M 2.546875 -4.1875 "/></g></g></g><g fill="#8c52ff" fill-opacity="1"><g transform="translate(13.517975, 53.95613)"><g><path d="M 6.75 0 L 6.75 -3.0625 C 6.75 -3.4375 6.664062 -3.71875 6.5 -3.90625 C 6.34375 -4.09375 6.097656 -4.1875 5.765625 -4.1875 C 5.316406 -4.1875 4.984375 -4.054688 4.765625 -3.796875 C 4.554688 -3.546875 4.453125 -3.15625 4.453125 -2.625 L 4.453125 0 L 3.75 0 L 3.75 -3.0625 C 3.75 -3.4375 3.664062 -3.71875 3.5 -3.90625 C 3.34375 -4.09375 3.09375 -4.1875 2.75 -4.1875 C 2.3125 -4.1875 1.988281 -4.050781 1.78125 -3.78125 C 1.570312 -3.507812 1.46875 -3.070312 1.46875 -2.46875 L 1.46875 0 L 0.75 0 L 0.75 -4.703125 L 1.328125 -4.703125 L 1.453125 -4.0625 L 1.484375 -4.0625 C 1.617188 -4.289062 1.804688 -4.46875 2.046875 -4.59375 C 2.296875 -4.71875 2.570312 -4.78125 2.875 -4.78125 C 3.601562 -4.78125 4.082031 -4.515625 4.3125 -3.984375 L 4.34375 -3.984375 C 4.488281 -4.234375 4.691406 -4.425781 4.953125 -4.5625 C 5.222656 -4.707031 5.523438 -4.78125 5.859375 -4.78125 C 6.390625 -4.78125 6.785156 -4.644531 7.046875 -4.375 C 7.316406 -4.101562 7.453125 -3.664062 7.453125 -3.0625 L 7.453125 0 Z M 6.75 0 "/></g></g></g><g fill="#8c52ff" fill-opacity="1"><g transform="translate(21.677626, 53.95613)"><g><path d="M 2.734375 0.078125 C 2.046875 0.078125 1.5 -0.128906 1.09375 -0.546875 C 0.695312 -0.972656 0.5 -1.5625 0.5 -2.3125 C 0.5 -3.070312 0.679688 -3.671875 1.046875 -4.109375 C 1.421875 -4.554688 1.925781 -4.78125 2.5625 -4.78125 C 3.144531 -4.78125 3.609375 -4.585938 3.953125 -4.203125 C 4.296875 -3.816406 4.46875 -3.304688 4.46875 -2.671875 L 4.46875 -2.21875 L 1.234375 -2.21875 C 1.242188 -1.664062 1.378906 -1.242188 1.640625 -0.953125 C 1.910156 -0.671875 2.285156 -0.53125 2.765625 -0.53125 C 3.273438 -0.53125 3.773438 -0.640625 4.265625 -0.859375 L 4.265625 -0.21875 C 4.015625 -0.113281 3.773438 -0.0390625 3.546875 0 C 3.328125 0.0507812 3.054688 0.078125 2.734375 0.078125 Z M 2.546875 -4.1875 C 2.171875 -4.1875 1.867188 -4.0625 1.640625 -3.8125 C 1.421875 -3.570312 1.289062 -3.234375 1.25 -2.796875 L 3.703125 -2.796875 C 3.703125 -3.242188 3.601562 -3.585938 3.40625 -3.828125 C 3.207031 -4.066406 2.921875 -4.1875 2.546875 -4.1875 Z M 2.546875 -4.1875 "/></g></g></g><g fill="#8c52ff" fill-opacity="1"><g transform="translate(26.599117, 53.95613)"><g><path d="M 6.75 0 L 6.75 -3.0625 C 6.75 -3.4375 6.664062 -3.71875 6.5 -3.90625 C 6.34375 -4.09375 6.097656 -4.1875 5.765625 -4.1875 C 5.316406 -4.1875 4.984375 -4.054688 4.765625 -3.796875 C 4.554688 -3.546875 4.453125 -3.15625 4.453125 -2.625 L 4.453125 0 L 3.75 0 L 3.75 -3.0625 C 3.75 -3.4375 3.664062 -3.71875 3.5 -3.90625 C 3.34375 -4.09375 3.09375 -4.1875 2.75 -4.1875 C 2.3125 -4.1875 1.988281 -4.050781 1.78125 -3.78125 C 1.570312 -3.507812 1.46875 -3.070312 1.46875 -2.46875 L 1.46875 0 L 0.75 0 L 0.75 -4.703125 L 1.328125 -4.703125 L 1.453125 -4.0625 L 1.484375 -4.0625 C 1.617188 -4.289062 1.804688 -4.46875 2.046875 -4.59375 C 2.296875 -4.71875 2.570312 -4.78125 2.875 -4.78125 C 3.601562 -4.78125 4.082031 -4.515625 4.3125 -3.984375 L 4.34375 -3.984375 C 4.488281 -4.234375 4.691406 -4.425781 4.953125 -4.5625 C 5.222656 -4.707031 5.523438 -4.78125 5.859375 -4.78125 C 6.390625 -4.78125 6.785156 -4.644531 7.046875 -4.375 C 7.316406 -4.101562 7.453125 -3.664062 7.453125 -3.0625 L 7.453125 0 Z M 6.75 0 "/></g></g></g><g fill="#8c52ff" fill-opacity="1"><g transform="translate(34.758768, 53.95613)"><g><path d="M 2.9375 -4.78125 C 3.5625 -4.78125 4.039062 -4.566406 4.375 -4.140625 C 4.71875 -3.722656 4.890625 -3.128906 4.890625 -2.359375 C 4.890625 -1.585938 4.71875 -0.988281 4.375 -0.5625 C 4.03125 -0.132812 3.550781 0.078125 2.9375 0.078125 C 2.632812 0.078125 2.351562 0.0234375 2.09375 -0.078125 C 1.84375 -0.191406 1.632812 -0.367188 1.46875 -0.609375 L 1.421875 -0.609375 L 1.265625 0 L 0.75 0 L 0.75 -6.671875 L 1.46875 -6.671875 L 1.46875 -5.046875 C 1.46875 -4.679688 1.457031 -4.359375 1.4375 -4.078125 L 1.46875 -4.078125 C 1.800781 -4.546875 2.289062 -4.78125 2.9375 -4.78125 Z M 2.84375 -4.1875 C 2.351562 -4.1875 2 -4.046875 1.78125 -3.765625 C 1.570312 -3.484375 1.46875 -3.015625 1.46875 -2.359375 C 1.46875 -1.691406 1.578125 -1.21875 1.796875 -0.9375 C 2.015625 -0.65625 2.367188 -0.515625 2.859375 -0.515625 C 3.296875 -0.515625 3.617188 -0.671875 3.828125 -0.984375 C 4.046875 -1.304688 4.15625 -1.765625 4.15625 -2.359375 C 4.15625 -2.972656 4.046875 -3.429688 3.828125 -3.734375 C 3.617188 -4.035156 3.289062 -4.1875 2.84375 -4.1875 Z M 2.84375 -4.1875 "/></g></g></g><g fill="#8c52ff" fill-opacity="1"><g transform="translate(40.134286, 53.95613)"><g><path d="M 2.734375 0.078125 C 2.046875 0.078125 1.5 -0.128906 1.09375 -0.546875 C 0.695312 -0.972656 0.5 -1.5625 0.5 -2.3125 C 0.5 -3.070312 0.679688 -3.671875 1.046875 -4.109375 C 1.421875 -4.554688 1.925781 -4.78125 2.5625 -4.78125 C 3.144531 -4.78125 3.609375 -4.585938 3.953125 -4.203125 C 4.296875 -3.816406 4.46875 -3.304688 4.46875 -2.671875 L 4.46875 -2.21875 L 1.234375 -2.21875 C 1.242188 -1.664062 1.378906 -1.242188 1.640625 -0.953125 C 1.910156 -0.671875 2.285156 -0.53125 2.765625 -0.53125 C 3.273438 -0.53125 3.773438 -0.640625 4.265625 -0.859375 L 4.265625 -0.21875 C 4.015625 -0.113281 3.773438 -0.0390625 3.546875 0 C 3.328125 0.0507812 3.054688 0.078125 2.734375 0.078125 Z M 2.546875 -4.1875 C 2.171875 -4.1875 1.867188 -4.0625 1.640625 -3.8125 C 1.421875 -3.570312 1.289062 -3.234375 1.25 -2.796875 L 3.703125 -2.796875 C 3.703125 -3.242188 3.601562 -3.585938 3.40625 -3.828125 C 3.207031 -4.066406 2.921875 -4.1875 2.546875 -4.1875 Z M 2.546875 -4.1875 "/></g></g></g><g fill="#8c52ff" fill-opacity="1"><g transform="translate(45.055777, 53.95613)"><g><path d="M 2.90625 -4.78125 C 3.113281 -4.78125 3.296875 -4.765625 3.453125 -4.734375 L 3.359375 -4.078125 C 3.160156 -4.117188 2.988281 -4.140625 2.84375 -4.140625 C 2.46875 -4.140625 2.144531 -3.984375 1.875 -3.671875 C 1.601562 -3.367188 1.46875 -2.984375 1.46875 -2.515625 L 1.46875 0 L 0.75 0 L 0.75 -4.703125 L 1.34375 -4.703125 L 1.421875 -3.828125 L 1.453125 -3.828125 C 1.628906 -4.128906 1.835938 -4.363281 2.078125 -4.53125 C 2.328125 -4.695312 2.601562 -4.78125 2.90625 -4.78125 Z M 2.90625 -4.78125 "/></g></g></g><g fill="#8c52ff" fill-opacity="1"><g transform="translate(48.6366, 53.95613)"><g/></g></g><g fill="#8c52ff" fill-opacity="1"><g transform="translate(50.915306, 53.95613)"><g><path d="M 2.453125 -3.140625 L 4.125 -6.265625 L 4.921875 -6.265625 L 2.828125 -2.4375 L 2.828125 0 L 2.09375 0 L 2.09375 -2.390625 L 0 -6.265625 L 0.796875 -6.265625 Z M 2.453125 -3.140625 "/></g></g></g><g fill="#8c52ff" fill-opacity="1"><g transform="translate(55.82823, 53.95613)"><g><path d="M 4.8125 -2.359375 C 4.8125 -1.585938 4.617188 -0.988281 4.234375 -0.5625 C 3.847656 -0.132812 3.3125 0.078125 2.625 0.078125 C 2.207031 0.078125 1.835938 -0.015625 1.515625 -0.203125 C 1.191406 -0.398438 0.941406 -0.679688 0.765625 -1.046875 C 0.585938 -1.421875 0.5 -1.859375 0.5 -2.359375 C 0.5 -3.117188 0.6875 -3.710938 1.0625 -4.140625 C 1.445312 -4.566406 1.976562 -4.78125 2.65625 -4.78125 C 3.320312 -4.78125 3.847656 -4.5625 4.234375 -4.125 C 4.617188 -3.6875 4.8125 -3.097656 4.8125 -2.359375 Z M 1.234375 -2.359375 C 1.234375 -1.753906 1.351562 -1.296875 1.59375 -0.984375 C 1.832031 -0.671875 2.1875 -0.515625 2.65625 -0.515625 C 3.113281 -0.515625 3.460938 -0.671875 3.703125 -0.984375 C 3.953125 -1.296875 4.078125 -1.753906 4.078125 -2.359375 C 4.078125 -2.953125 3.953125 -3.40625 3.703125 -3.71875 C 3.460938 -4.03125 3.109375 -4.1875 2.640625 -4.1875 C 2.171875 -4.1875 1.816406 -4.03125 1.578125 -3.71875 C 1.347656 -3.414062 1.234375 -2.960938 1.234375 -2.359375 Z M 1.234375 -2.359375 "/></g></g></g><g fill="#8c52ff" fill-opacity="1"><g transform="translate(61.126649, 53.95613)"><g><path d="M 1.421875 -4.703125 L 1.421875 -1.65625 C 1.421875 -1.269531 1.507812 -0.984375 1.6875 -0.796875 C 1.863281 -0.609375 2.132812 -0.515625 2.5 -0.515625 C 2.988281 -0.515625 3.347656 -0.644531 3.578125 -0.90625 C 3.804688 -1.175781 3.921875 -1.617188 3.921875 -2.234375 L 3.921875 -4.703125 L 4.640625 -4.703125 L 4.640625 0 L 4.046875 0 L 3.9375 -0.625 L 3.90625 -0.625 C 3.757812 -0.394531 3.554688 -0.21875 3.296875 -0.09375 C 3.035156 0.0195312 2.738281 0.078125 2.40625 0.078125 C 1.84375 0.078125 1.414062 -0.0546875 1.125 -0.328125 C 0.84375 -0.597656 0.703125 -1.03125 0.703125 -1.625 L 0.703125 -4.703125 Z M 1.421875 -4.703125 "/></g></g></g><g fill="#8c52ff" fill-opacity="1"><g transform="translate(66.510734, 53.95613)"><g><path d="M 2.90625 -4.78125 C 3.113281 -4.78125 3.296875 -4.765625 3.453125 -4.734375 L 3.359375 -4.078125 C 3.160156 -4.117188 2.988281 -4.140625 2.84375 -4.140625 C 2.46875 -4.140625 2.144531 -3.984375 1.875 -3.671875 C 1.601562 -3.367188 1.46875 -2.984375 1.46875 -2.515625 L 1.46875 0 L 0.75 0 L 0.75 -4.703125 L 1.34375 -4.703125 L 1.421875 -3.828125 L 1.453125 -3.828125 C 1.628906 -4.128906 1.835938 -4.363281 2.078125 -4.53125 C 2.328125 -4.695312 2.601562 -4.78125 2.90625 -4.78125 Z M 2.90625 -4.78125 "/></g></g></g><g fill="#8c52ff" fill-opacity="1"><g transform="translate(70.091557, 53.95613)"><g/></g></g><g fill="#8c52ff" fill-opacity="1"><g transform="translate(72.370263, 53.95613)"><g><path d="M 3.640625 0 L 1.515625 -5.5625 L 1.46875 -5.5625 C 1.507812 -5.113281 1.53125 -4.585938 1.53125 -3.984375 L 1.53125 0 L 0.859375 0 L 0.859375 -6.265625 L 1.953125 -6.265625 L 3.9375 -1.09375 L 3.984375 -1.09375 L 5.984375 -6.265625 L 7.078125 -6.265625 L 7.078125 0 L 6.34375 0 L 6.34375 -4.03125 C 6.34375 -4.5 6.363281 -5.003906 6.40625 -5.546875 L 6.375 -5.546875 L 4.21875 0 Z M 3.640625 0 "/></g></g></g><g fill="#8c52ff" fill-opacity="1"><g transform="translate(80.290051, 53.95613)"><g><path d="M 4.8125 -2.359375 C 4.8125 -1.585938 4.617188 -0.988281 4.234375 -0.5625 C 3.847656 -0.132812 3.3125 0.078125 2.625 0.078125 C 2.207031 0.078125 1.835938 -0.015625 1.515625 -0.203125 C 1.191406 -0.398438 0.941406 -0.679688 0.765625 -1.046875 C 0.585938 -1.421875 0.5 -1.859375 0.5 -2.359375 C 0.5 -3.117188 0.6875 -3.710938 1.0625 -4.140625 C 1.445312 -4.566406 1.976562 -4.78125 2.65625 -4.78125 C 3.320312 -4.78125 3.847656 -4.5625 4.234375 -4.125 C 4.617188 -3.6875 4.8125 -3.097656 4.8125 -2.359375 Z M 1.234375 -2.359375 C 1.234375 -1.753906 1.351562 -1.296875 1.59375 -0.984375 C 1.832031 -0.671875 2.1875 -0.515625 2.65625 -0.515625 C 3.113281 -0.515625 3.460938 -0.671875 3.703125 -0.984375 C 3.953125 -1.296875 4.078125 -1.753906 4.078125 -2.359375 C 4.078125 -2.953125 3.953125 -3.40625 3.703125 -3.71875 C 3.460938 -4.03125 3.109375 -4.1875 2.640625 -4.1875 C 2.171875 -4.1875 1.816406 -4.03125 1.578125 -3.71875 C 1.347656 -3.414062 1.234375 -2.960938 1.234375 -2.359375 Z M 1.234375 -2.359375 "/></g></g></g><g fill="#8c52ff" fill-opacity="1"><g transform="translate(85.58847, 53.95613)"><g><path d="M 6.75 0 L 6.75 -3.0625 C 6.75 -3.4375 6.664062 -3.71875 6.5 -3.90625 C 6.34375 -4.09375 6.097656 -4.1875 5.765625 -4.1875 C 5.316406 -4.1875 4.984375 -4.054688 4.765625 -3.796875 C 4.554688 -3.546875 4.453125 -3.15625 4.453125 -2.625 L 4.453125 0 L 3.75 0 L 3.75 -3.0625 C 3.75 -3.4375 3.664062 -3.71875 3.5 -3.90625 C 3.34375 -4.09375 3.09375 -4.1875 2.75 -4.1875 C 2.3125 -4.1875 1.988281 -4.050781 1.78125 -3.78125 C 1.570312 -3.507812 1.46875 -3.070312 1.46875 -2.46875 L 1.46875 0 L 0.75 0 L 0.75 -4.703125 L 1.328125 -4.703125 L 1.453125 -4.0625 L 1.484375 -4.0625 C 1.617188 -4.289062 1.804688 -4.46875 2.046875 -4.59375 C 2.296875 -4.71875 2.570312 -4.78125 2.875 -4.78125 C 3.601562 -4.78125 4.082031 -4.515625 4.3125 -3.984375 L 4.34375 -3.984375 C 4.488281 -4.234375 4.691406 -4.425781 4.953125 -4.5625 C 5.222656 -4.707031 5.523438 -4.78125 5.859375 -4.78125 C 6.390625 -4.78125 6.785156 -4.644531 7.046875 -4.375 C 7.316406 -4.101562 7.453125 -3.664062 7.453125 -3.0625 L 7.453125 0 Z M 6.75 0 "/></g></g></g><g fill="#8c52ff" fill-opacity="1"><g transform="translate(93.748121, 53.95613)"><g><path d="M 2.734375 0.078125 C 2.046875 0.078125 1.5 -0.128906 1.09375 -0.546875 C 0.695312 -0.972656 0.5 -1.5625 0.5 -2.3125 C 0.5 -3.070312 0.679688 -3.671875 1.046875 -4.109375 C 1.421875 -4.554688 1.925781 -4.78125 2.5625 -4.78125 C 3.144531 -4.78125 3.609375 -4.585938 3.953125 -4.203125 C 4.296875 -3.816406 4.46875 -3.304688 4.46875 -2.671875 L 4.46875 -2.21875 L 1.234375 -2.21875 C 1.242188 -1.664062 1.378906 -1.242188 1.640625 -0.953125 C 1.910156 -0.671875 2.285156 -0.53125 2.765625 -0.53125 C 3.273438 -0.53125 3.773438 -0.640625 4.265625 -0.859375 L 4.265625 -0.21875 C 4.015625 -0.113281 3.773438 -0.0390625 3.546875 0 C 3.328125 0.0507812 3.054688 0.078125 2.734375 0.078125 Z M 2.546875 -4.1875 C 2.171875 -4.1875 1.867188 -4.0625 1.640625 -3.8125 C 1.421875 -3.570312 1.289062 -3.234375 1.25 -2.796875 L 3.703125 -2.796875 C 3.703125 -3.242188 3.601562 -3.585938 3.40625 -3.828125 C 3.207031 -4.066406 2.921875 -4.1875 2.546875 -4.1875 Z M 2.546875 -4.1875 "/></g></g></g><g fill="#8c52ff" fill-opacity="1"><g transform="translate(98.669612, 53.95613)"><g><path d="M 3.96875 0 L 3.96875 -3.046875 C 3.96875 -3.421875 3.878906 -3.703125 3.703125 -3.890625 C 3.535156 -4.085938 3.265625 -4.1875 2.890625 -4.1875 C 2.398438 -4.1875 2.039062 -4.050781 1.8125 -3.78125 C 1.582031 -3.519531 1.46875 -3.082031 1.46875 -2.46875 L 1.46875 0 L 0.75 0 L 0.75 -4.703125 L 1.328125 -4.703125 L 1.453125 -4.0625 L 1.484375 -4.0625 C 1.628906 -4.289062 1.832031 -4.46875 2.09375 -4.59375 C 2.351562 -4.71875 2.644531 -4.78125 2.96875 -4.78125 C 3.539062 -4.78125 3.96875 -4.644531 4.25 -4.375 C 4.539062 -4.101562 4.6875 -3.664062 4.6875 -3.0625 L 4.6875 0 Z M 3.96875 0 "/></g></g></g><g fill="#8c52ff" fill-opacity="1"><g transform="translate(104.053697, 53.95613)"><g><path d="M 2.265625 -0.5 C 2.398438 -0.5 2.523438 -0.507812 2.640625 -0.53125 C 2.753906 -0.550781 2.847656 -0.570312 2.921875 -0.59375 L 2.921875 -0.046875 C 2.835938 -0.00390625 2.71875 0.0234375 2.5625 0.046875 C 2.414062 0.0664062 2.285156 0.078125 2.171875 0.078125 C 1.265625 0.078125 0.8125 -0.394531 0.8125 -1.34375 L 0.8125 -4.140625 L 0.140625 -4.140625 L 0.140625 -4.484375 L 0.8125 -4.78125 L 1.109375 -5.78125 L 1.515625 -5.78125 L 1.515625 -4.703125 L 2.875 -4.703125 L 2.875 -4.140625 L 1.515625 -4.140625 L 1.515625 -1.375 C 1.515625 -1.09375 1.582031 -0.875 1.71875 -0.71875 C 1.851562 -0.570312 2.035156 -0.5 2.265625 -0.5 Z M 2.265625 -0.5 "/></g></g></g><g fill="#8c52ff" fill-opacity="1"><g transform="translate(107.150509, 53.95613)"><g><path d="M 3.78125 -1.28125 C 3.78125 -0.84375 3.617188 -0.503906 3.296875 -0.265625 C 2.972656 -0.0351562 2.515625 0.078125 1.921875 0.078125 C 1.296875 0.078125 0.8125 -0.015625 0.46875 -0.203125 L 0.46875 -0.875 C 0.695312 -0.757812 0.9375 -0.664062 1.1875 -0.59375 C 1.445312 -0.53125 1.695312 -0.5 1.9375 -0.5 C 2.3125 -0.5 2.597656 -0.554688 2.796875 -0.671875 C 2.992188 -0.796875 3.09375 -0.976562 3.09375 -1.21875 C 3.09375 -1.40625 3.015625 -1.5625 2.859375 -1.6875 C 2.703125 -1.820312 2.394531 -1.976562 1.9375 -2.15625 C 1.5 -2.3125 1.1875 -2.453125 1 -2.578125 C 0.8125 -2.703125 0.671875 -2.835938 0.578125 -2.984375 C 0.492188 -3.140625 0.453125 -3.328125 0.453125 -3.546875 C 0.453125 -3.929688 0.609375 -4.234375 0.921875 -4.453125 C 1.234375 -4.671875 1.660156 -4.78125 2.203125 -4.78125 C 2.710938 -4.78125 3.207031 -4.675781 3.6875 -4.46875 L 3.4375 -3.890625 C 2.96875 -4.085938 2.539062 -4.1875 2.15625 -4.1875 C 1.8125 -4.1875 1.550781 -4.132812 1.375 -4.03125 C 1.207031 -3.925781 1.125 -3.78125 1.125 -3.59375 C 1.125 -3.46875 1.15625 -3.359375 1.21875 -3.265625 C 1.289062 -3.179688 1.394531 -3.097656 1.53125 -3.015625 C 1.675781 -2.941406 1.953125 -2.828125 2.359375 -2.671875 C 2.921875 -2.460938 3.296875 -2.253906 3.484375 -2.046875 C 3.679688 -1.847656 3.78125 -1.59375 3.78125 -1.28125 Z M 3.78125 -1.28125 "/></g></g></g><g fill="#8c52ff" fill-opacity="1"><g transform="translate(111.335275, 53.95613)"><g/></g></g><g fill="#8c52ff" fill-opacity="1"><g transform="translate(113.613981, 53.95613)"><g><path d="M 6.328125 0 L 5.609375 0 L 4.34375 -4.203125 C 4.28125 -4.378906 4.210938 -4.609375 4.140625 -4.890625 C 4.066406 -5.179688 4.03125 -5.351562 4.03125 -5.40625 C 3.96875 -5.03125 3.867188 -4.617188 3.734375 -4.171875 L 2.5 0 L 1.78125 0 L 0.109375 -6.265625 L 0.890625 -6.265625 L 1.875 -2.390625 C 2.007812 -1.847656 2.109375 -1.359375 2.171875 -0.921875 C 2.253906 -1.441406 2.367188 -1.953125 2.515625 -2.453125 L 3.640625 -6.265625 L 4.421875 -6.265625 L 5.59375 -2.421875 C 5.726562 -1.984375 5.84375 -1.484375 5.9375 -0.921875 C 6 -1.328125 6.101562 -1.820312 6.25 -2.40625 L 7.234375 -6.265625 L 8.015625 -6.265625 Z M 6.328125 0 "/></g></g></g><g fill="#8c52ff" fill-opacity="1"><g transform="translate(121.735083, 53.95613)"><g><path d="M 1.46875 0 L 0.75 0 L 0.75 -4.703125 L 1.46875 -4.703125 Z M 0.6875 -5.96875 C 0.6875 -6.132812 0.726562 -6.253906 0.8125 -6.328125 C 0.894531 -6.398438 0.992188 -6.4375 1.109375 -6.4375 C 1.222656 -6.4375 1.320312 -6.398438 1.40625 -6.328125 C 1.488281 -6.253906 1.53125 -6.132812 1.53125 -5.96875 C 1.53125 -5.8125 1.488281 -5.691406 1.40625 -5.609375 C 1.320312 -5.535156 1.222656 -5.5 1.109375 -5.5 C 0.992188 -5.5 0.894531 -5.535156 0.8125 -5.609375 C 0.726562 -5.691406 0.6875 -5.8125 0.6875 -5.96875 Z M 0.6875 -5.96875 "/></g></g></g><g fill="#8c52ff" fill-opacity="1"><g transform="translate(123.953822, 53.95613)"><g><path d="M 2.265625 -0.5 C 2.398438 -0.5 2.523438 -0.507812 2.640625 -0.53125 C 2.753906 -0.550781 2.847656 -0.570312 2.921875 -0.59375 L 2.921875 -0.046875 C 2.835938 -0.00390625 2.71875 0.0234375 2.5625 0.046875 C 2.414062 0.0664062 2.285156 0.078125 2.171875 0.078125 C 1.265625 0.078125 0.8125 -0.394531 0.8125 -1.34375 L 0.8125 -4.140625 L 0.140625 -4.140625 L 0.140625 -4.484375 L 0.8125 -4.78125 L 1.109375 -5.78125 L 1.515625 -5.78125 L 1.515625 -4.703125 L 2.875 -4.703125 L 2.875 -4.140625 L 1.515625 -4.140625 L 1.515625 -1.375 C 1.515625 -1.09375 1.582031 -0.875 1.71875 -0.71875 C 1.851562 -0.570312 2.035156 -0.5 2.265625 -0.5 Z M 2.265625 -0.5 "/></g></g></g><g fill="#8c52ff" fill-opacity="1"><g transform="translate(127.050628, 53.95613)"><g><path d="M 3.96875 0 L 3.96875 -3.046875 C 3.96875 -3.421875 3.878906 -3.703125 3.703125 -3.890625 C 3.535156 -4.085938 3.265625 -4.1875 2.890625 -4.1875 C 2.390625 -4.1875 2.023438 -4.050781 1.796875 -3.78125 C 1.578125 -3.507812 1.46875 -3.066406 1.46875 -2.453125 L 1.46875 0 L 0.75 0 L 0.75 -6.671875 L 1.46875 -6.671875 L 1.46875 -4.65625 C 1.46875 -4.40625 1.457031 -4.203125 1.4375 -4.046875 L 1.46875 -4.046875 C 1.613281 -4.273438 1.816406 -4.453125 2.078125 -4.578125 C 2.335938 -4.710938 2.628906 -4.78125 2.953125 -4.78125 C 3.535156 -4.78125 3.96875 -4.640625 4.25 -4.359375 C 4.539062 -4.085938 4.6875 -3.65625 4.6875 -3.0625 L 4.6875 0 Z M 3.96875 0 "/></g></g></g><g fill="#8c52ff" fill-opacity="1"><g transform="translate(132.434705, 53.95613)"><g/></g></g><g fill="#8c52ff" fill-opacity="1"><g transform="translate(134.713411, 53.95613)"><g><path d="M 5.59375 -6.265625 L 5.59375 -2.21875 C 5.59375 -1.5 5.375 -0.9375 4.9375 -0.53125 C 4.507812 -0.125 3.921875 0.078125 3.171875 0.078125 C 2.410156 0.078125 1.820312 -0.125 1.40625 -0.53125 C 1 -0.945312 0.796875 -1.515625 0.796875 -2.234375 L 0.796875 -6.265625 L 1.53125 -6.265625 L 1.53125 -2.171875 C 1.53125 -1.648438 1.671875 -1.25 1.953125 -0.96875 C 2.242188 -0.6875 2.664062 -0.546875 3.21875 -0.546875 C 3.75 -0.546875 4.15625 -0.6875 4.4375 -0.96875 C 4.71875 -1.25 4.859375 -1.65625 4.859375 -2.1875 L 4.859375 -6.265625 Z M 5.59375 -6.265625 "/></g></g></g><g fill="#8c52ff" fill-opacity="1"><g transform="translate(141.099791, 53.95613)"><g><path d="M 3.78125 -1.28125 C 3.78125 -0.84375 3.617188 -0.503906 3.296875 -0.265625 C 2.972656 -0.0351562 2.515625 0.078125 1.921875 0.078125 C 1.296875 0.078125 0.8125 -0.015625 0.46875 -0.203125 L 0.46875 -0.875 C 0.695312 -0.757812 0.9375 -0.664062 1.1875 -0.59375 C 1.445312 -0.53125 1.695312 -0.5 1.9375 -0.5 C 2.3125 -0.5 2.597656 -0.554688 2.796875 -0.671875 C 2.992188 -0.796875 3.09375 -0.976562 3.09375 -1.21875 C 3.09375 -1.40625 3.015625 -1.5625 2.859375 -1.6875 C 2.703125 -1.820312 2.394531 -1.976562 1.9375 -2.15625 C 1.5 -2.3125 1.1875 -2.453125 1 -2.578125 C 0.8125 -2.703125 0.671875 -2.835938 0.578125 -2.984375 C 0.492188 -3.140625 0.453125 -3.328125 0.453125 -3.546875 C 0.453125 -3.929688 0.609375 -4.234375 0.921875 -4.453125 C 1.234375 -4.671875 1.660156 -4.78125 2.203125 -4.78125 C 2.710938 -4.78125 3.207031 -4.675781 3.6875 -4.46875 L 3.4375 -3.890625 C 2.96875 -4.085938 2.539062 -4.1875 2.15625 -4.1875 C 1.8125 -4.1875 1.550781 -4.132812 1.375 -4.03125 C 1.207031 -3.925781 1.125 -3.78125 1.125 -3.59375 C 1.125 -3.46875 1.15625 -3.359375 1.21875 -3.265625 C 1.289062 -3.179688 1.394531 -3.097656 1.53125 -3.015625 C 1.675781 -2.941406 1.953125 -2.828125 2.359375 -2.671875 C 2.921875 -2.460938 3.296875 -2.253906 3.484375 -2.046875 C 3.679688 -1.847656 3.78125 -1.59375 3.78125 -1.28125 Z M 3.78125 -1.28125 "/></g></g></g></svg>