<svg xmlns="http://www.w3.org/2000/svg" xmlns:xlink="http://www.w3.org/1999/xlink" width="40" zoomAndPan="magnify" viewBox="0 0 30 30.000001" height="40" preserveAspectRatio="xMidYMid meet" version="1.0"><defs><clipPath id="id1"><path d="M 1.671875 1.1875 L 28.527344 1.1875 L 28.527344 28.042969 L 1.671875 28.042969 Z M 1.671875 1.1875 " clip-rule="nonzero"/></clipPath><clipPath id="id2"><path d="M 3.730469 10.84375 L 25.503906 10.84375 L 25.503906 27.535156 L 3.730469 27.535156 Z M 3.730469 10.84375 " clip-rule="nonzero"/></clipPath></defs><g clip-path="url(#id1)"><path fill="#5e17eb" d="M 15.101562 1.1875 C 7.683594 1.1875 1.671875 7.199219 1.671875 14.617188 C 1.671875 22.03125 7.683594 28.042969 15.101562 28.042969 C 22.515625 28.042969 28.527344 22.03125 28.527344 14.617188 C 28.527344 7.199219 22.515625 1.1875 15.101562 1.1875 " fill-opacity="1" fill-rule="nonzero"/></g><g clip-path="url(#id2)"><path fill="#ffffff" d="M 23.234375 27.535156 L 6 27.535156 C 4.75 27.535156 3.734375 26.550781 3.734375 25.339844 L 3.734375 15.675781 C 3.734375 14.464844 4.75 13.476562 6 13.476562 L 11.695312 13.476562 C 11.890625 13.476562 12.0625 13.359375 12.125 13.179688 L 12.617188 11.742188 C 12.804688 11.203125 13.324219 10.84375 13.910156 10.84375 L 18.953125 10.84375 C 19.539062 10.84375 20.058594 11.203125 20.242188 11.742188 L 20.738281 13.179688 C 20.796875 13.359375 20.96875 13.476562 21.167969 13.476562 L 23.234375 13.476562 C 24.484375 13.476562 25.5 14.464844 25.5 15.675781 L 25.5 25.339844 C 25.5 26.550781 24.484375 27.535156 23.234375 27.535156 Z M 6 14.355469 C 5.25 14.355469 4.640625 14.949219 4.640625 15.675781 L 4.640625 25.339844 C 4.640625 26.066406 5.25 26.65625 6 26.65625 L 23.234375 26.65625 C 23.984375 26.65625 24.59375 26.066406 24.59375 25.339844 L 24.59375 15.675781 C 24.59375 14.949219 23.984375 14.355469 23.234375 14.355469 L 21.167969 14.355469 C 20.582031 14.355469 20.0625 13.996094 19.875 13.457031 L 19.382812 12.023438 C 19.320312 11.839844 19.148438 11.722656 18.953125 11.722656 L 13.910156 11.722656 C 13.714844 11.722656 13.542969 11.839844 13.480469 12.023438 L 12.984375 13.457031 C 12.800781 13.996094 12.28125 14.355469 11.695312 14.355469 Z M 6 14.355469 " fill-opacity="1" fill-rule="nonzero"/></g><path fill="#ffffff" d="M 16.429688 25.777344 C 13.429688 25.777344 10.988281 23.414062 10.988281 20.507812 C 10.988281 17.601562 13.429688 15.234375 16.429688 15.234375 C 19.433594 15.234375 21.871094 17.601562 21.871094 20.507812 C 21.871094 23.414062 19.433594 25.777344 16.429688 25.777344 Z M 16.429688 16.113281 C 13.929688 16.113281 11.894531 18.085938 11.894531 20.507812 C 11.894531 22.929688 13.929688 24.902344 16.429688 24.902344 C 18.929688 24.902344 20.964844 22.929688 20.964844 20.507812 C 20.964844 18.085938 18.929688 16.113281 16.429688 16.113281 Z M 16.429688 16.113281 " fill-opacity="1" fill-rule="nonzero"/><path fill="#ffffff" d="M 16.429688 24.023438 C 14.429688 24.023438 12.804688 22.445312 12.804688 20.507812 C 12.804688 18.570312 14.429688 16.992188 16.429688 16.992188 C 18.433594 16.992188 20.058594 18.570312 20.058594 20.507812 C 20.058594 22.445312 18.433594 24.023438 16.429688 24.023438 Z M 16.429688 17.871094 C 14.929688 17.871094 13.710938 19.054688 13.710938 20.507812 C 13.710938 21.960938 14.929688 23.144531 16.429688 23.144531 C 17.929688 23.144531 19.152344 21.960938 19.152344 20.507812 C 19.152344 19.054688 17.929688 17.871094 16.429688 17.871094 Z M 16.429688 17.871094 " fill-opacity="1" fill-rule="nonzero"/><path fill="#ffffff" d="M 7.8125 12.601562 L 6 12.601562 C 5.75 12.601562 5.546875 12.402344 5.546875 12.160156 C 5.546875 11.917969 5.75 11.722656 6 11.722656 L 7.8125 11.722656 C 8.066406 11.722656 8.269531 11.917969 8.269531 12.160156 C 8.269531 12.402344 8.066406 12.601562 7.8125 12.601562 Z M 7.8125 12.601562 " fill-opacity="1" fill-rule="nonzero"/><path fill="#ffffff" d="M 7.8125 16.113281 L 6 16.113281 C 5.75 16.113281 5.546875 15.917969 5.546875 15.675781 C 5.546875 15.433594 5.75 15.234375 6 15.234375 L 7.8125 15.234375 C 8.066406 15.234375 8.269531 15.433594 8.269531 15.675781 C 8.269531 15.917969 8.066406 16.113281 7.8125 16.113281 Z M 7.8125 16.113281 " fill-opacity="1" fill-rule="nonzero"/></svg>